name rise34.3697peak60.0498fall86.3158.mot
datacolumns 19
datarows 18
range 3.56165800000000 3.59000100000000
endheader
time	ground_force1_vx	ground_force1_vy	ground_force1_vz	ground_force1_px	ground_force1_py	ground_force1_pz	ground_force2_vx	ground_force2_vy	ground_force2_vz	ground_force2_px	ground_force2_py	ground_force2_pz	ground_torque1_x	ground_torque1_y	ground_torque1_z	ground_torque2_x	ground_torque2_y	ground_torque2_z	
3.56165800000000	-3.21253900000000	693.46625600000004	34.62738300000000	0.29265100000000	0.00000000000000	0.08424900000000	0.00000000000000	0.00000000000000	0.00000000000000	0.00000000000000	0.00000000000000	0.00000000000000	0.00000000000000	20.19225800000000	0.00000000000000	0.00000000000000	0.00000000000000	0.00000000000000	
3.56332200000000	-3.79267800000000	693.86399900000004	34.66766700000000	0.29145700000000	0.00000000000000	0.08433900000000	0.00000000000000	0.00000000000000	0.00000000000000	0.00000000000000	0.00000000000000	0.00000000000000	0.00000000000000	20.28001600000000	0.00000000000000	0.00000000000000	0.00000000000000	0.00000000000000	
3.56498700000000	-4.38260500000000	694.30173600000001	34.70809300000000	0.29026000000000	0.00000000000000	0.08442900000000	0.00000000000000	0.00000000000000	0.00000000000000	0.00000000000000	0.00000000000000	0.00000000000000	0.00000000000000	20.37022900000000	0.00000000000000	0.00000000000000	0.00000000000000	0.00000000000000	
3.56665100000000	-4.98237800000000	694.78010099999995	34.74858900000000	0.28906100000000	0.00000000000000	0.08451800000000	0.00000000000000	0.00000000000000	0.00000000000000	0.00000000000000	0.00000000000000	0.00000000000000	0.00000000000000	20.46283600000000	0.00000000000000	0.00000000000000	0.00000000000000	0.00000000000000	
3.56832200000000	-5.59202500000000	695.29979600000001	34.78910200000000	0.28786100000000	0.00000000000000	0.08460500000000	0.00000000000000	0.00000000000000	0.00000000000000	0.00000000000000	0.00000000000000	0.00000000000000	0.00000000000000	20.55778100000000	0.00000000000000	0.00000000000000	0.00000000000000	0.00000000000000	
3.56998700000000	-6.21154400000000	695.86158399999999	34.82959300000000	0.28665900000000	0.00000000000000	0.08469200000000	0.00000000000000	0.00000000000000	0.00000000000000	0.00000000000000	0.00000000000000	0.00000000000000	0.00000000000000	20.65500900000000	0.00000000000000	0.00000000000000	0.00000000000000	0.00000000000000	
3.57165200000000	-6.84090300000000	696.46628599999997	34.87003700000000	0.28545800000000	0.00000000000000	0.08477700000000	0.00000000000000	0.00000000000000	0.00000000000000	0.00000000000000	0.00000000000000	0.00000000000000	0.00000000000000	20.75446900000000	0.00000000000000	0.00000000000000	0.00000000000000	0.00000000000000	
3.57331600000000	-7.48003900000000	697.11477300000001	34.91042500000000	0.28425700000000	0.00000000000000	0.08486100000000	0.00000000000000	0.00000000000000	0.00000000000000	0.00000000000000	0.00000000000000	0.00000000000000	0.00000000000000	20.85611000000000	0.00000000000000	0.00000000000000	0.00000000000000	0.00000000000000	
3.57498900000000	-8.12885700000000	697.80796299999997	34.95076200000000	0.28305700000000	0.00000000000000	0.08494300000000	0.00000000000000	0.00000000000000	0.00000000000000	0.00000000000000	0.00000000000000	0.00000000000000	0.00000000000000	20.95988300000000	0.00000000000000	0.00000000000000	0.00000000000000	0.00000000000000	
3.57665600000000	-8.78723400000000	698.54681200000005	34.99106600000000	0.28186000000000	0.00000000000000	0.08502400000000	0.00000000000000	0.00000000000000	0.00000000000000	0.00000000000000	0.00000000000000	0.00000000000000	0.00000000000000	21.06574300000000	0.00000000000000	0.00000000000000	0.00000000000000	0.00000000000000	
3.57832600000000	-9.45501300000000	699.33231000000001	35.03137100000000	0.28066400000000	0.00000000000000	0.08510300000000	0.00000000000000	0.00000000000000	0.00000000000000	0.00000000000000	0.00000000000000	0.00000000000000	0.00000000000000	21.17364300000000	0.00000000000000	0.00000000000000	0.00000000000000	0.00000000000000	
3.57999100000000	-10.13200700000000	700.16547200000002	35.07172200000000	0.27947300000000	0.00000000000000	0.08518100000000	0.00000000000000	0.00000000000000	0.00000000000000	0.00000000000000	0.00000000000000	0.00000000000000	0.00000000000000	21.28353600000000	0.00000000000000	0.00000000000000	0.00000000000000	0.00000000000000	
3.58165100000000	-10.81799900000000	701.04732700000000	35.11217900000000	0.27828500000000	0.00000000000000	0.08525600000000	0.00000000000000	0.00000000000000	0.00000000000000	0.00000000000000	0.00000000000000	0.00000000000000	0.00000000000000	21.39537900000000	0.00000000000000	0.00000000000000	0.00000000000000	0.00000000000000	
3.58332400000000	-11.51274100000000	701.97891900000002	35.15281500000000	0.27710200000000	0.00000000000000	0.08532900000000	0.00000000000000	0.00000000000000	0.00000000000000	0.00000000000000	0.00000000000000	0.00000000000000	0.00000000000000	21.50912400000000	0.00000000000000	0.00000000000000	0.00000000000000	0.00000000000000	
3.58498700000000	-12.21595400000000	702.96128699999997	35.19371300000000	0.27592500000000	0.00000000000000	0.08540000000000	0.00000000000000	0.00000000000000	0.00000000000000	0.00000000000000	0.00000000000000	0.00000000000000	0.00000000000000	21.62472700000000	0.00000000000000	0.00000000000000	0.00000000000000	0.00000000000000	
3.58665300000000	-12.92733000000000	703.99546799999996	35.23497100000000	0.27475400000000	0.00000000000000	0.08546900000000	0.00000000000000	0.00000000000000	0.00000000000000	0.00000000000000	0.00000000000000	0.00000000000000	0.00000000000000	21.74213900000000	0.00000000000000	0.00000000000000	0.00000000000000	0.00000000000000	
3.58832400000000	-13.64653100000000	705.08247800000004	35.27669700000000	0.27359000000000	0.00000000000000	0.08553600000000	0.00000000000000	0.00000000000000	0.00000000000000	0.00000000000000	0.00000000000000	0.00000000000000	0.00000000000000	21.86131400000000	0.00000000000000	0.00000000000000	0.00000000000000	0.00000000000000	
3.59000100000000	-14.37319000000000	706.22330999999997	35.31901100000000	0.27243300000000	0.00000000000000	0.08560000000000	0.00000000000000	0.00000000000000	0.00000000000000	0.00000000000000	0.00000000000000	0.00000000000000	0.00000000000000	21.98220000000000	0.00000000000000	0.00000000000000	0.00000000000000	0.00000000000000	
